<svg xmlns="http://www.w3.org/2000/svg" width="800" height="600" viewBox="0 0 800 600" role="img" aria-label="Industry — Industrial Infrastructure">
  <defs>
    <linearGradient id="g" x1="0" y1="0" x2="1" y2="1">
      <stop offset="0" stop-color="#061D38"/>
      <stop offset=".55" stop-color="#0C2D5E"/>
      <stop offset="1" stop-color="#123B72"/>
    </linearGradient>
  </defs>
  <rect width="800" height="600" fill="url(#g)"/>
  <g stroke="#358FE8" stroke-width="1" opacity=".35" fill="#358FE8"><line x1="112" y1="437" x2="153" y2="431"/><line x1="112" y1="437" x2="181" y2="449"/><line x1="738" y1="187" x2="630" y2="260"/><line x1="738" y1="187" x2="712" y2="471"/><line x1="87" y1="304" x2="58" y2="257"/><line x1="87" y1="304" x2="64" y2="356"/><line x1="324" y1="525" x2="360" y2="538"/><line x1="324" y1="525" x2="378" y2="478"/><line x1="181" y1="449" x2="153" y2="431"/><line x1="181" y1="449" x2="112" y2="437"/><line x1="630" y1="260" x2="738" y2="187"/><line x1="630" y1="260" x2="643" y2="458"/><line x1="324" y1="400" x2="304" y2="364"/><line x1="324" y1="400" x2="272" y2="399"/><line x1="439" y1="131" x2="420" y2="130"/><line x1="439" y1="131" x2="412" y2="83"/><line x1="367" y1="342" x2="304" y2="364"/><line x1="367" y1="342" x2="324" y2="400"/><line x1="58" y1="257" x2="87" y2="304"/><line x1="58" y1="257" x2="64" y2="356"/><line x1="267" y1="224" x2="341" y2="224"/><line x1="267" y1="224" x2="380" y2="253"/><line x1="422" y1="231" x2="380" y2="253"/><line x1="422" y1="231" x2="341" y2="224"/><line x1="412" y1="83" x2="450" y2="77"/><line x1="412" y1="83" x2="420" y2="130"/><line x1="272" y1="399" x2="304" y2="364"/><line x1="272" y1="399" x2="324" y2="400"/><line x1="153" y1="431" x2="181" y2="449"/><line x1="153" y1="431" x2="112" y2="437"/><line x1="304" y1="364" x2="324" y2="400"/><line x1="304" y1="364" x2="272" y2="399"/><line x1="380" y1="253" x2="422" y2="231"/><line x1="380" y1="253" x2="341" y2="224"/><line x1="341" y1="224" x2="380" y2="253"/><line x1="341" y1="224" x2="267" y2="224"/><line x1="152" y1="72" x2="267" y2="224"/><line x1="152" y1="72" x2="58" y2="257"/><line x1="64" y1="356" x2="87" y2="304"/><line x1="64" y1="356" x2="112" y2="437"/><line x1="712" y1="471" x2="643" y2="458"/><line x1="712" y1="471" x2="630" y2="260"/><line x1="420" y1="130" x2="439" y2="131"/><line x1="420" y1="130" x2="412" y2="83"/><line x1="360" y1="538" x2="324" y2="525"/><line x1="360" y1="538" x2="378" y2="478"/><line x1="460" y1="399" x2="367" y2="342"/><line x1="460" y1="399" x2="378" y2="478"/><line x1="450" y1="77" x2="412" y2="83"/><line x1="450" y1="77" x2="439" y2="131"/><line x1="47" y1="470" x2="112" y2="437"/><line x1="47" y1="470" x2="153" y2="431"/><line x1="643" y1="458" x2="712" y2="471"/><line x1="643" y1="458" x2="460" y2="399"/><line x1="378" y1="478" x2="360" y2="538"/><line x1="378" y1="478" x2="324" y2="525"/><circle cx="112" cy="437" r="2.5"/><circle cx="738" cy="187" r="2"/><circle cx="87" cy="304" r="2"/><circle cx="324" cy="525" r="2"/><circle cx="181" cy="449" r="3"/><circle cx="630" cy="260" r="2"/><circle cx="324" cy="400" r="2"/><circle cx="439" cy="131" r="2.5"/><circle cx="367" cy="342" r="3"/><circle cx="58" cy="257" r="2.5"/><circle cx="267" cy="224" r="2.5"/><circle cx="422" cy="231" r="2.5"/><circle cx="412" cy="83" r="2"/><circle cx="272" cy="399" r="3"/><circle cx="153" cy="431" r="3"/><circle cx="304" cy="364" r="2"/><circle cx="380" cy="253" r="3"/><circle cx="341" cy="224" r="3"/><circle cx="152" cy="72" r="2"/><circle cx="64" cy="356" r="2"/><circle cx="712" cy="471" r="3"/><circle cx="420" cy="130" r="3"/><circle cx="360" cy="538" r="2"/><circle cx="460" cy="399" r="2"/><circle cx="450" cy="77" r="2"/><circle cx="47" cy="470" r="3"/><circle cx="643" cy="458" r="2.5"/><circle cx="378" cy="478" r="2.5"/></g>
  <g stroke="#358FE8" stroke-width="2" opacity=".6"><line x1="690" y1="580" x2="780" y2="490"/><line x1="720" y1="580" x2="780" y2="520"/><line x1="750" y1="580" x2="780" y2="550"/></g>
  <text x="40" y="300" fill="#FFFFFF" font-family="Kanit, Inter, Arial, sans-serif" font-size="27" font-weight="700" font-style="italic" opacity=".92">INDUSTRY — INDUSTRIAL INFRASTRUCTURE</text>
  <text x="40" y="343" fill="#FFFFFF" font-family="Inter, Arial, sans-serif" font-size="14" opacity=".6">Placeholder — replace with a real photo (WebP)</text>
</svg>
