<svg xmlns="http://www.w3.org/2000/svg" width="1920" height="640" viewBox="0 0 1920 640" role="img" aria-label="Page hero — industrial facility">
  <defs><linearGradient id="g" x1="0" y1="0" x2="1" y2="1"><stop offset="0" stop-color="#061D38"/><stop offset=".55" stop-color="#0C2D5E"/><stop offset="1" stop-color="#123B72"/></linearGradient></defs>
  <rect width="1920" height="640" fill="url(#g)"/>
  <g stroke="#358FE8" stroke-width="1" opacity=".35" fill="#358FE8"><line x1="344" y1="380" x2="384" y2="431"/><line x1="344" y1="380" x2="203" y2="265"/><line x1="1353" y1="261" x2="1481" y2="305"/><line x1="1353" y1="261" x2="1384" y2="123"/><line x1="1036" y1="557" x2="903" y2="442"/><line x1="1036" y1="557" x2="1076" y2="363"/><line x1="903" y1="442" x2="808" y2="476"/><line x1="903" y1="442" x2="912" y2="325"/><line x1="819" y1="535" x2="808" y2="476"/><line x1="819" y1="535" x2="903" y2="442"/><line x1="1341" y1="481" x2="1267" y2="503"/><line x1="1341" y1="481" x2="1255" y2="455"/><line x1="1384" y1="123" x2="1348" y2="113"/><line x1="1384" y1="123" x2="1353" y2="261"/><line x1="384" y1="431" x2="344" y2="380"/><line x1="384" y1="431" x2="531" y2="365"/><line x1="808" y1="476" x2="819" y2="535"/><line x1="808" y1="476" x2="903" y2="442"/><line x1="978" y1="213" x2="978" y2="275"/><line x1="978" y1="213" x2="912" y2="325"/><line x1="531" y1="365" x2="384" y2="431"/><line x1="531" y1="365" x2="344" y2="380"/><line x1="155" y1="391" x2="203" y2="265"/><line x1="155" y1="391" x2="209" y2="212"/><line x1="331" y1="139" x2="209" y2="212"/><line x1="331" y1="139" x2="203" y2="265"/><line x1="1348" y1="113" x2="1384" y2="123"/><line x1="1348" y1="113" x2="1353" y2="261"/><line x1="209" y1="212" x2="203" y2="265"/><line x1="209" y1="212" x2="136" y2="131"/><line x1="1076" y1="363" x2="978" y2="275"/><line x1="1076" y1="363" x2="912" y2="325"/><line x1="1684" y1="89" x2="1643" y2="120"/><line x1="1684" y1="89" x2="1627" y2="66"/><line x1="203" y1="265" x2="209" y2="212"/><line x1="203" y1="265" x2="155" y2="391"/><line x1="1608" y1="394" x2="1481" y2="305"/><line x1="1608" y1="394" x2="1690" y2="537"/><line x1="1255" y1="455" x2="1267" y2="503"/><line x1="1255" y1="455" x2="1341" y2="481"/><line x1="1690" y1="537" x2="1608" y2="394"/><line x1="1690" y1="537" x2="1481" y2="305"/><line x1="1643" y1="120" x2="1684" y2="89"/><line x1="1643" y1="120" x2="1627" y2="66"/><line x1="912" y1="325" x2="978" y2="275"/><line x1="912" y1="325" x2="903" y2="442"/><line x1="978" y1="275" x2="978" y2="213"/><line x1="978" y1="275" x2="912" y2="325"/><line x1="136" y1="131" x2="209" y2="212"/><line x1="136" y1="131" x2="203" y2="265"/><line x1="1627" y1="66" x2="1643" y2="120"/><line x1="1627" y1="66" x2="1684" y2="89"/><line x1="1481" y1="305" x2="1353" y2="261"/><line x1="1481" y1="305" x2="1608" y2="394"/><line x1="1267" y1="503" x2="1255" y2="455"/><line x1="1267" y1="503" x2="1341" y2="481"/><circle cx="344" cy="380" r="3"/><circle cx="1353" cy="261" r="2"/><circle cx="1036" cy="557" r="2.5"/><circle cx="903" cy="442" r="2"/><circle cx="819" cy="535" r="3"/><circle cx="1341" cy="481" r="3"/><circle cx="1384" cy="123" r="3"/><circle cx="384" cy="431" r="2"/><circle cx="808" cy="476" r="3"/><circle cx="978" cy="213" r="2"/><circle cx="531" cy="365" r="3"/><circle cx="155" cy="391" r="2"/><circle cx="331" cy="139" r="2.5"/><circle cx="1348" cy="113" r="3"/><circle cx="209" cy="212" r="3"/><circle cx="1076" cy="363" r="2.5"/><circle cx="1684" cy="89" r="3"/><circle cx="203" cy="265" r="2"/><circle cx="1608" cy="394" r="2.5"/><circle cx="1255" cy="455" r="2"/><circle cx="1690" cy="537" r="2"/><circle cx="1643" cy="120" r="2"/><circle cx="912" cy="325" r="3"/><circle cx="978" cy="275" r="2"/><circle cx="136" cy="131" r="2.5"/><circle cx="1627" cy="66" r="2"/><circle cx="1481" cy="305" r="2"/><circle cx="1267" cy="503" r="2"/></g>
  <g stroke="#358FE8" stroke-width="2" opacity=".6"><line x1="1810" y1="620" x2="1900" y2="530"/><line x1="1840" y1="620" x2="1900" y2="560"/><line x1="1870" y1="620" x2="1900" y2="590"/></g>
  <text x="77" y="64" fill="#FFFFFF" font-family="Kanit, Inter, Arial, sans-serif" font-size="17" font-weight="700" font-style="italic" opacity=".5">PAGE HERO — INDUSTRIAL FACILITY</text>
  <text x="77" y="90" fill="#FFFFFF" font-family="Inter, Arial, sans-serif" font-size="12" opacity=".35">Placeholder — replace with a real photo (WebP)</text>
</svg>
