<svg xmlns="http://www.w3.org/2000/svg" width="1200" height="800" viewBox="0 0 1200 800" role="img" aria-label="Project — Mocd2 Map Ta Phut Olefins Network Telephone">
  <defs><linearGradient id="g" x1="0" y1="0" x2="1" y2="1"><stop offset="0" stop-color="#061D38"/><stop offset=".55" stop-color="#0C2D5E"/><stop offset="1" stop-color="#123B72"/></linearGradient></defs>
  <rect width="1200" height="800" fill="url(#g)"/>
  <g stroke="#358FE8" stroke-width="1" opacity=".35" fill="#358FE8"><line x1="831" y1="95" x2="794" y2="250"/><line x1="831" y1="95" x2="939" y2="219"/><line x1="668" y1="239" x2="670" y2="276"/><line x1="668" y1="239" x2="580" y2="241"/><line x1="702" y1="495" x2="624" y2="497"/><line x1="702" y1="495" x2="821" y2="413"/><line x1="917" y1="651" x2="902" y2="602"/><line x1="917" y1="651" x2="754" y2="638"/><line x1="794" y1="250" x2="898" y2="312"/><line x1="794" y1="250" x2="668" y2="239"/><line x1="407" y1="674" x2="399" y2="466"/><line x1="407" y1="674" x2="256" y2="505"/><line x1="580" y1="241" x2="589" y2="308"/><line x1="580" y1="241" x2="668" y2="239"/><line x1="939" y1="219" x2="898" y2="312"/><line x1="939" y1="219" x2="794" y2="250"/><line x1="1078" y1="82" x2="939" y2="219"/><line x1="1078" y1="82" x2="831" y2="95"/><line x1="399" y1="466" x2="256" y2="505"/><line x1="399" y1="466" x2="368" y2="263"/><line x1="368" y1="263" x2="318" y2="222"/><line x1="368" y1="263" x2="432" y2="227"/><line x1="754" y1="638" x2="722" y2="677"/><line x1="754" y1="638" x2="702" y2="495"/><line x1="722" y1="677" x2="754" y2="638"/><line x1="722" y1="677" x2="702" y2="495"/><line x1="821" y1="413" x2="898" y2="312"/><line x1="821" y1="413" x2="702" y2="495"/><line x1="1060" y1="400" x2="1099" y2="498"/><line x1="1060" y1="400" x2="898" y2="312"/><line x1="476" y1="269" x2="432" y2="227"/><line x1="476" y1="269" x2="368" y2="263"/><line x1="624" y1="497" x2="702" y2="495"/><line x1="624" y1="497" x2="754" y2="638"/><line x1="589" y1="308" x2="580" y2="241"/><line x1="589" y1="308" x2="670" y2="276"/><line x1="902" y1="602" x2="917" y2="651"/><line x1="902" y1="602" x2="754" y2="638"/><line x1="318" y1="222" x2="368" y2="263"/><line x1="318" y1="222" x2="432" y2="227"/><line x1="199" y1="239" x2="318" y2="222"/><line x1="199" y1="239" x2="125" y2="360"/><line x1="1099" y1="498" x2="1060" y2="400"/><line x1="1099" y1="498" x2="902" y2="602"/><line x1="256" y1="505" x2="399" y2="466"/><line x1="256" y1="505" x2="125" y2="360"/><line x1="670" y1="276" x2="668" y2="239"/><line x1="670" y1="276" x2="589" y2="308"/><line x1="435" y1="88" x2="432" y2="227"/><line x1="435" y1="88" x2="318" y2="222"/><line x1="125" y1="360" x2="199" y2="239"/><line x1="125" y1="360" x2="256" y2="505"/><line x1="432" y1="227" x2="476" y2="269"/><line x1="432" y1="227" x2="368" y2="263"/><line x1="898" y1="312" x2="939" y2="219"/><line x1="898" y1="312" x2="794" y2="250"/><circle cx="831" cy="95" r="2.5"/><circle cx="668" cy="239" r="2"/><circle cx="702" cy="495" r="2"/><circle cx="917" cy="651" r="3"/><circle cx="794" cy="250" r="2.5"/><circle cx="407" cy="674" r="2"/><circle cx="580" cy="241" r="2.5"/><circle cx="939" cy="219" r="2"/><circle cx="1078" cy="82" r="2"/><circle cx="399" cy="466" r="3"/><circle cx="368" cy="263" r="2"/><circle cx="754" cy="638" r="2.5"/><circle cx="722" cy="677" r="2"/><circle cx="821" cy="413" r="2"/><circle cx="1060" cy="400" r="2.5"/><circle cx="476" cy="269" r="2"/><circle cx="624" cy="497" r="2.5"/><circle cx="589" cy="308" r="3"/><circle cx="902" cy="602" r="2.5"/><circle cx="318" cy="222" r="2.5"/><circle cx="199" cy="239" r="2"/><circle cx="1099" cy="498" r="2.5"/><circle cx="256" cy="505" r="2"/><circle cx="670" cy="276" r="2"/><circle cx="435" cy="88" r="2.5"/><circle cx="125" cy="360" r="2"/><circle cx="432" cy="227" r="2"/><circle cx="898" cy="312" r="2.5"/></g>
  <g stroke="#358FE8" stroke-width="2" opacity=".6"><line x1="1090" y1="780" x2="1180" y2="690"/><line x1="1120" y1="780" x2="1180" y2="720"/><line x1="1150" y1="780" x2="1180" y2="750"/></g>
  <text x="48" y="80" fill="#FFFFFF" font-family="Kanit, Inter, Arial, sans-serif" font-size="22" font-weight="700" font-style="italic" opacity=".5">PROJECT — MOCD2 MAP TA PHUT OLEFINS NETWORK TELEPHONE</text>
  <text x="48" y="113" fill="#FFFFFF" font-family="Inter, Arial, sans-serif" font-size="16" opacity=".35">Placeholder — replace with a real photo (WebP)</text>
</svg>
