<svg xmlns="http://www.w3.org/2000/svg" width="1200" height="800" viewBox="0 0 1200 800" role="img" aria-label="Project — Gc Glycol Ea Plant Cctv Maintenance">
  <defs><linearGradient id="g" x1="0" y1="0" x2="1" y2="1"><stop offset="0" stop-color="#061D38"/><stop offset=".55" stop-color="#0C2D5E"/><stop offset="1" stop-color="#123B72"/></linearGradient></defs>
  <rect width="1200" height="800" fill="url(#g)"/>
  <g stroke="#358FE8" stroke-width="1" opacity=".35" fill="#358FE8"><line x1="1117" y1="248" x2="1014" y2="334"/><line x1="1117" y1="248" x2="1011" y2="359"/><line x1="782" y1="320" x2="796" y2="370"/><line x1="782" y1="320" x2="874" y2="250"/><line x1="156" y1="166" x2="259" y2="287"/><line x1="156" y1="166" x2="303" y2="292"/><line x1="919" y1="318" x2="941" y2="338"/><line x1="919" y1="318" x2="874" y2="250"/><line x1="615" y1="477" x2="630" y2="288"/><line x1="615" y1="477" x2="796" y2="370"/><line x1="1127" y1="524" x2="1079" y2="518"/><line x1="1127" y1="524" x2="1076" y2="606"/><line x1="630" y1="288" x2="642" y2="263"/><line x1="630" y1="288" x2="512" y2="207"/><line x1="241" y1="594" x2="313" y2="706"/><line x1="241" y1="594" x2="279" y2="358"/><line x1="279" y1="358" x2="303" y2="292"/><line x1="279" y1="358" x2="259" y2="287"/><line x1="259" y1="287" x2="303" y2="292"/><line x1="259" y1="287" x2="279" y2="358"/><line x1="1076" y1="606" x2="1059" y2="691"/><line x1="1076" y1="606" x2="1079" y2="518"/><line x1="773" y1="75" x2="752" y2="97"/><line x1="773" y1="75" x2="882" y2="203"/><line x1="895" y1="432" x2="994" y2="443"/><line x1="895" y1="432" x2="941" y2="338"/><line x1="512" y1="207" x2="642" y2="263"/><line x1="512" y1="207" x2="630" y2="288"/><line x1="1079" y1="518" x2="1127" y2="524"/><line x1="1079" y1="518" x2="1027" y2="495"/><line x1="313" y1="706" x2="241" y2="594"/><line x1="313" y1="706" x2="279" y2="358"/><line x1="1027" y1="495" x2="1079" y2="518"/><line x1="1027" y1="495" x2="994" y2="443"/><line x1="941" y1="338" x2="919" y2="318"/><line x1="941" y1="338" x2="1011" y2="359"/><line x1="874" y1="250" x2="882" y2="203"/><line x1="874" y1="250" x2="919" y2="318"/><line x1="1014" y1="334" x2="1011" y2="359"/><line x1="1014" y1="334" x2="941" y2="338"/><line x1="1059" y1="691" x2="1076" y2="606"/><line x1="1059" y1="691" x2="1079" y2="518"/><line x1="994" y1="443" x2="1027" y2="495"/><line x1="994" y1="443" x2="1011" y2="359"/><line x1="642" y1="263" x2="630" y2="288"/><line x1="642" y1="263" x2="512" y2="207"/><line x1="796" y1="370" x2="782" y2="320"/><line x1="796" y1="370" x2="895" y2="432"/><line x1="882" y1="203" x2="874" y2="250"/><line x1="882" y1="203" x2="919" y2="318"/><line x1="303" y1="292" x2="259" y2="287"/><line x1="303" y1="292" x2="279" y2="358"/><line x1="1011" y1="359" x2="1014" y2="334"/><line x1="1011" y1="359" x2="941" y2="338"/><line x1="752" y1="97" x2="773" y2="75"/><line x1="752" y1="97" x2="882" y2="203"/><circle cx="1117" cy="248" r="3"/><circle cx="782" cy="320" r="3"/><circle cx="156" cy="166" r="2"/><circle cx="919" cy="318" r="2.5"/><circle cx="615" cy="477" r="2"/><circle cx="1127" cy="524" r="2.5"/><circle cx="630" cy="288" r="3"/><circle cx="241" cy="594" r="2"/><circle cx="279" cy="358" r="3"/><circle cx="259" cy="287" r="2.5"/><circle cx="1076" cy="606" r="2"/><circle cx="773" cy="75" r="3"/><circle cx="895" cy="432" r="2.5"/><circle cx="512" cy="207" r="3"/><circle cx="1079" cy="518" r="3"/><circle cx="313" cy="706" r="2.5"/><circle cx="1027" cy="495" r="2"/><circle cx="941" cy="338" r="2.5"/><circle cx="874" cy="250" r="2.5"/><circle cx="1014" cy="334" r="2.5"/><circle cx="1059" cy="691" r="2"/><circle cx="994" cy="443" r="3"/><circle cx="642" cy="263" r="2.5"/><circle cx="796" cy="370" r="2"/><circle cx="882" cy="203" r="2"/><circle cx="303" cy="292" r="3"/><circle cx="1011" cy="359" r="2.5"/><circle cx="752" cy="97" r="2"/></g>
  <g stroke="#358FE8" stroke-width="2" opacity=".6"><line x1="1090" y1="780" x2="1180" y2="690"/><line x1="1120" y1="780" x2="1180" y2="720"/><line x1="1150" y1="780" x2="1180" y2="750"/></g>
  <text x="48" y="80" fill="#FFFFFF" font-family="Kanit, Inter, Arial, sans-serif" font-size="22" font-weight="700" font-style="italic" opacity=".5">PROJECT — GC GLYCOL EA PLANT CCTV MAINTENANCE</text>
  <text x="48" y="113" fill="#FFFFFF" font-family="Inter, Arial, sans-serif" font-size="16" opacity=".35">Placeholder — replace with a real photo (WebP)</text>
</svg>
