<svg xmlns="http://www.w3.org/2000/svg" width="1200" height="800" viewBox="0 0 1200 800" role="img" aria-label="Project — Linde Asu3 Cctv">
  <defs><linearGradient id="g" x1="0" y1="0" x2="1" y2="1"><stop offset="0" stop-color="#061D38"/><stop offset=".55" stop-color="#0C2D5E"/><stop offset="1" stop-color="#123B72"/></linearGradient></defs>
  <rect width="1200" height="800" fill="url(#g)"/>
  <g stroke="#358FE8" stroke-width="1" opacity=".35" fill="#358FE8"><line x1="256" y1="467" x2="189" y2="382"/><line x1="256" y1="467" x2="112" y2="481"/><line x1="154" y1="622" x2="112" y2="481"/><line x1="154" y1="622" x2="256" y2="467"/><line x1="599" y1="519" x2="624" y2="530"/><line x1="599" y1="519" x2="515" y2="562"/><line x1="940" y1="129" x2="929" y2="163"/><line x1="940" y1="129" x2="771" y2="114"/><line x1="624" y1="530" x2="599" y2="519"/><line x1="624" y1="530" x2="515" y2="562"/><line x1="1071" y1="529" x2="1026" y2="597"/><line x1="1071" y1="529" x2="980" y2="518"/><line x1="980" y1="518" x2="1071" y2="529"/><line x1="980" y1="518" x2="1026" y2="597"/><line x1="901" y1="574" x2="980" y2="518"/><line x1="901" y1="574" x2="1026" y2="597"/><line x1="300" y1="301" x2="334" y2="338"/><line x1="300" y1="301" x2="372" y2="280"/><line x1="79" y1="281" x2="72" y2="150"/><line x1="79" y1="281" x2="189" y2="382"/><line x1="94" y1="95" x2="72" y2="150"/><line x1="94" y1="95" x2="180" y2="84"/><line x1="771" y1="114" x2="929" y2="163"/><line x1="771" y1="114" x2="940" y2="129"/><line x1="1026" y1="597" x2="1071" y2="529"/><line x1="1026" y1="597" x2="980" y2="518"/><line x1="189" y1="382" x2="256" y2="467"/><line x1="189" y1="382" x2="112" y2="481"/><line x1="72" y1="150" x2="94" y2="95"/><line x1="72" y1="150" x2="180" y2="84"/><line x1="995" y1="369" x2="1016" y2="409"/><line x1="995" y1="369" x2="947" y2="333"/><line x1="1016" y1="409" x2="995" y2="369"/><line x1="1016" y1="409" x2="947" y2="333"/><line x1="446" y1="633" x2="515" y2="562"/><line x1="446" y1="633" x2="599" y2="519"/><line x1="180" y1="84" x2="94" y2="95"/><line x1="180" y1="84" x2="72" y2="150"/><line x1="372" y1="280" x2="334" y2="338"/><line x1="372" y1="280" x2="300" y2="301"/><line x1="773" y1="711" x2="901" y2="574"/><line x1="773" y1="711" x2="624" y2="530"/><line x1="769" y1="402" x2="947" y2="333"/><line x1="769" y1="402" x2="624" y2="530"/><line x1="112" y1="481" x2="189" y2="382"/><line x1="112" y1="481" x2="256" y2="467"/><line x1="1105" y1="703" x2="1026" y2="597"/><line x1="1105" y1="703" x2="1071" y2="529"/><line x1="947" y1="333" x2="995" y2="369"/><line x1="947" y1="333" x2="1016" y2="409"/><line x1="515" y1="562" x2="599" y2="519"/><line x1="515" y1="562" x2="446" y2="633"/><line x1="929" y1="163" x2="940" y2="129"/><line x1="929" y1="163" x2="771" y2="114"/><line x1="334" y1="338" x2="300" y2="301"/><line x1="334" y1="338" x2="372" y2="280"/><circle cx="256" cy="467" r="2.5"/><circle cx="154" cy="622" r="2"/><circle cx="599" cy="519" r="2.5"/><circle cx="940" cy="129" r="2"/><circle cx="624" cy="530" r="2.5"/><circle cx="1071" cy="529" r="2"/><circle cx="980" cy="518" r="2"/><circle cx="901" cy="574" r="2.5"/><circle cx="300" cy="301" r="2.5"/><circle cx="79" cy="281" r="3"/><circle cx="94" cy="95" r="3"/><circle cx="771" cy="114" r="2.5"/><circle cx="1026" cy="597" r="3"/><circle cx="189" cy="382" r="3"/><circle cx="72" cy="150" r="2.5"/><circle cx="995" cy="369" r="3"/><circle cx="1016" cy="409" r="3"/><circle cx="446" cy="633" r="2"/><circle cx="180" cy="84" r="2"/><circle cx="372" cy="280" r="2.5"/><circle cx="773" cy="711" r="2"/><circle cx="769" cy="402" r="3"/><circle cx="112" cy="481" r="2.5"/><circle cx="1105" cy="703" r="2"/><circle cx="947" cy="333" r="2.5"/><circle cx="515" cy="562" r="2"/><circle cx="929" cy="163" r="3"/><circle cx="334" cy="338" r="2.5"/></g>
  <g stroke="#358FE8" stroke-width="2" opacity=".6"><line x1="1090" y1="780" x2="1180" y2="690"/><line x1="1120" y1="780" x2="1180" y2="720"/><line x1="1150" y1="780" x2="1180" y2="750"/></g>
  <text x="60" y="400" fill="#FFFFFF" font-family="Kanit, Inter, Arial, sans-serif" font-size="36" font-weight="700" font-style="italic" opacity=".92">PROJECT — LINDE ASU3 CCTV</text>
  <text x="60" y="458" fill="#FFFFFF" font-family="Inter, Arial, sans-serif" font-size="19" opacity=".6">Placeholder — replace with a real photo (WebP)</text>
</svg>
