<svg xmlns="http://www.w3.org/2000/svg" width="1200" height="800" viewBox="0 0 1200 800" role="img" aria-label="Solution — Industrial Network">
  <defs>
    <linearGradient id="g" x1="0" y1="0" x2="1" y2="1">
      <stop offset="0" stop-color="#061D38"/>
      <stop offset=".55" stop-color="#0C2D5E"/>
      <stop offset="1" stop-color="#123B72"/>
    </linearGradient>
  </defs>
  <rect width="1200" height="800" fill="url(#g)"/>
  <g stroke="#358FE8" stroke-width="1" opacity=".35" fill="#358FE8"><line x1="777" y1="262" x2="803" y2="217"/><line x1="777" y1="262" x2="730" y2="154"/><line x1="132" y1="476" x2="237" y2="387"/><line x1="132" y1="476" x2="142" y2="280"/><line x1="232" y1="670" x2="166" y2="685"/><line x1="232" y1="670" x2="300" y2="598"/><line x1="783" y1="563" x2="770" y2="510"/><line x1="783" y1="563" x2="928" y2="527"/><line x1="455" y1="490" x2="405" y2="488"/><line x1="455" y1="490" x2="499" y2="422"/><line x1="770" y1="510" x2="783" y2="563"/><line x1="770" y1="510" x2="724" y2="383"/><line x1="591" y1="134" x2="730" y2="154"/><line x1="591" y1="134" x2="574" y2="329"/><line x1="1033" y1="256" x2="1115" y2="240"/><line x1="1033" y1="256" x2="957" y2="336"/><line x1="906" y1="293" x2="957" y2="336"/><line x1="906" y1="293" x2="956" y2="363"/><line x1="803" y1="217" x2="777" y2="262"/><line x1="803" y1="217" x2="730" y2="154"/><line x1="1115" y1="240" x2="1033" y2="256"/><line x1="1115" y1="240" x2="957" y2="336"/><line x1="237" y1="387" x2="132" y2="476"/><line x1="237" y1="387" x2="142" y2="280"/><line x1="956" y1="363" x2="957" y2="336"/><line x1="956" y1="363" x2="960" y2="393"/><line x1="300" y1="598" x2="320" y2="560"/><line x1="300" y1="598" x2="232" y2="670"/><line x1="730" y1="154" x2="803" y2="217"/><line x1="730" y1="154" x2="777" y2="262"/><line x1="648" y1="682" x2="783" y2="563"/><line x1="648" y1="682" x2="770" y2="510"/><line x1="499" y1="422" x2="455" y2="490"/><line x1="499" y1="422" x2="405" y2="488"/><line x1="928" y1="527" x2="960" y2="393"/><line x1="928" y1="527" x2="783" y2="563"/><line x1="957" y1="336" x2="956" y2="363"/><line x1="957" y1="336" x2="960" y2="393"/><line x1="320" y1="560" x2="300" y2="598"/><line x1="320" y1="560" x2="405" y2="488"/><line x1="405" y1="488" x2="455" y2="490"/><line x1="405" y1="488" x2="320" y2="560"/><line x1="960" y1="393" x2="956" y2="363"/><line x1="960" y1="393" x2="957" y2="336"/><line x1="724" y1="383" x2="777" y2="262"/><line x1="724" y1="383" x2="770" y2="510"/><line x1="142" y1="280" x2="237" y2="387"/><line x1="142" y1="280" x2="132" y2="476"/><line x1="166" y1="685" x2="232" y2="670"/><line x1="166" y1="685" x2="300" y2="598"/><line x1="574" y1="329" x2="499" y2="422"/><line x1="574" y1="329" x2="724" y2="383"/><line x1="1109" y1="553" x2="928" y2="527"/><line x1="1109" y1="553" x2="960" y2="393"/><line x1="416" y1="286" x2="499" y2="422"/><line x1="416" y1="286" x2="574" y2="329"/><circle cx="777" cy="262" r="2.5"/><circle cx="132" cy="476" r="3"/><circle cx="232" cy="670" r="2.5"/><circle cx="783" cy="563" r="2"/><circle cx="455" cy="490" r="2.5"/><circle cx="770" cy="510" r="2.5"/><circle cx="591" cy="134" r="2.5"/><circle cx="1033" cy="256" r="2"/><circle cx="906" cy="293" r="2.5"/><circle cx="803" cy="217" r="3"/><circle cx="1115" cy="240" r="2.5"/><circle cx="237" cy="387" r="3"/><circle cx="956" cy="363" r="3"/><circle cx="300" cy="598" r="3"/><circle cx="730" cy="154" r="2"/><circle cx="648" cy="682" r="2"/><circle cx="499" cy="422" r="2"/><circle cx="928" cy="527" r="2.5"/><circle cx="957" cy="336" r="2"/><circle cx="320" cy="560" r="3"/><circle cx="405" cy="488" r="3"/><circle cx="960" cy="393" r="2.5"/><circle cx="724" cy="383" r="2.5"/><circle cx="142" cy="280" r="3"/><circle cx="166" cy="685" r="2.5"/><circle cx="574" cy="329" r="3"/><circle cx="1109" cy="553" r="2.5"/><circle cx="416" cy="286" r="2"/></g>
  <g stroke="#358FE8" stroke-width="2" opacity=".6"><line x1="1090" y1="780" x2="1180" y2="690"/><line x1="1120" y1="780" x2="1180" y2="720"/><line x1="1150" y1="780" x2="1180" y2="750"/></g>
  <text x="60" y="400" fill="#FFFFFF" font-family="Kanit, Inter, Arial, sans-serif" font-size="36" font-weight="700" font-style="italic" opacity=".92">SOLUTION — INDUSTRIAL NETWORK</text>
  <text x="60" y="458" fill="#FFFFFF" font-family="Inter, Arial, sans-serif" font-size="19" opacity=".6">Placeholder — replace with a real photo (WebP)</text>
</svg>
